<?xml version="1.0" encoding="utf-8"?>
<!-- Svg Vector Icons : http://www.onlinewebfonts.com/icon -->
<!DOCTYPE svg PUBLIC "-//W3C//DTD SVG 1.1//EN" "http://www.w3.org/Graphics/SVG/1.1/DTD/svg11.dtd">
<svg version="1.1" xmlns="http://www.w3.org/2000/svg" xmlns:xlink="http://www.w3.org/1999/xlink" x="0px" y="0px" viewBox="0 0 1000 1000" enable-background="new 0 0 1000 1000" xml:space="preserve">
<metadata> Svg Vector Icons : http://www.onlinewebfonts.com/icon </metadata>
<g><path d="M47.7,10L47.7,10L47.7,10z"/><path d="M952.3,537.7c0,61.2-12,119.7-35.9,175.5c-24,55.8-56.1,103.9-96.6,144.3c-40.4,40.4-88.5,72.6-144.3,96.6C619.7,978,561.2,990,500,990s-119.7-12-175.5-35.9c-55.8-24-103.9-56.1-144.3-96.6c-40.4-40.4-72.6-88.5-96.6-144.3c-24-55.8-35.9-114.3-35.9-175.5c0-71.5,15.8-138.8,47.4-202c31.6-63.2,76.1-116.2,133.4-159c16.9-12.6,35.6-17.5,56.2-14.7c20.6,2.7,37,12.6,49.2,29.5c12.6,16.5,17.4,35,14.4,55.7c-2.9,20.6-12.7,37.2-29.2,49.8c-38.5,29.1-68.2,64.6-89.2,106.6c-21,42-31.5,86.8-31.5,134.3c0,40.8,7.9,79.8,23.8,116.9c15.9,37.1,37.4,69.2,64.5,96.3c27.1,27.1,59.2,48.6,96.3,64.5c37.1,15.9,76.1,23.9,116.9,23.8c40.8,0,79.8-8,116.9-23.8c37.1-15.9,69.2-37.4,96.3-64.5c27.1-27.1,48.6-59.2,64.5-96.3s23.8-76,23.8-116.9c0-47.5-10.5-92.3-31.5-134.3c-21-42-50.8-77.5-89.2-106.6c-16.5-12.6-26.2-29.2-29.2-49.8c-2.9-20.6,1.9-39.2,14.4-55.7c12.2-16.9,28.7-26.7,49.5-29.5c20.8-2.7,39.5,2.2,56,14.7c57.3,42.8,101.8,95.8,133.4,159C936.4,398.9,952.2,466.2,952.3,537.7L952.3,537.7z M575.4,85.4v376.9c0,20.4-7.5,38.1-22.4,53c-14.9,14.9-32.6,22.4-53,22.4c-20.4,0-38.1-7.5-53-22.4c-14.9-14.9-22.4-32.6-22.4-53V85.4c0-20.4,7.5-38.1,22.4-53C461.9,17.5,479.6,10,500,10c20.4,0,38.1,7.5,53,22.4C567.9,47.3,575.4,65,575.4,85.4L575.4,85.4z"/></g>
</svg>